<svg xmlns="http://www.w3.org/2000/svg" width="193" height="97" viewBox="0 0 193 97">
  <path d="M42.15 55.91L42.15 55.91Q42.15 54.71 41.79 53.79Q41.42 52.86 40.52 52.11Q39.62 51.36 38.04 50.68Q36.45 50 34.04 49.30L34.04 49.30Q31.51 48.55 29.47 47.62Q27.43 46.70 25.98 45.50Q24.52 44.30 23.75 42.76Q22.98 41.21 22.98 39.22L22.98 39.22Q22.98 37.23 23.80 35.54Q24.62 33.85 26.15 32.60Q27.69 31.34 29.82 30.64Q31.95 29.94 34.58 29.94L34.58 29.94Q38.42 29.94 41.11 31.40Q43.79 32.87 45.20 35.22Q46.60 37.58 46.60 40.25L46.60 40.25L42.10 40.25Q42.10 38.33 41.28 36.84Q40.46 35.35 38.80 34.50Q37.13 33.64 34.58 33.64L34.58 33.64Q32.16 33.64 30.59 34.37Q29.02 35.09 28.26 36.34Q27.50 37.58 27.50 39.17L27.50 39.17Q27.50 40.25 27.96 41.13Q28.41 42.01 29.39 42.76Q30.36 43.51 31.87 44.14Q33.38 44.77 35.49 45.36L35.49 45.36Q38.40 46.18 40.51 47.19Q42.62 48.20 43.99 49.45Q45.36 50.70 46.03 52.29Q46.70 53.87 46.70 55.86L46.70 55.86Q46.70 57.95 45.85 59.63Q45.01 61.32 43.44 62.52Q41.87 63.71 39.68 64.36Q37.48 65 34.79 65L34.79 65Q32.42 65 30.14 64.34Q27.85 63.69 25.99 62.38Q24.13 61.06 23.01 59.13Q21.90 57.20 21.90 54.64L21.90 54.64L26.40 54.64Q26.40 56.40 27.08 57.65Q27.76 58.91 28.94 59.73Q30.13 60.55 31.64 60.93Q33.15 61.32 34.79 61.32L34.79 61.32Q37.16 61.32 38.80 60.66Q40.44 60.01 41.29 58.79Q42.15 57.57 42.15 55.91Z M49.51 39.17L53.84 39.17L58.84 58.11L64.74 39.17L68.23 39.17L74.23 58.51L79.13 39.17L83.45 39.17L76.09 64.53L72.57 64.53L66.41 45.34L60.41 64.53L56.87 64.53L49.51 39.17Z M88.23 39.17L92.59 39.17L92.59 64.53L88.23 64.53L88.23 39.17ZM87.90 32.45L87.90 32.45Q87.90 31.39 88.54 30.66Q89.19 29.94 90.45 29.94L90.45 29.94Q91.70 29.94 92.36 30.66Q93.03 31.39 93.03 32.45L93.03 32.45Q93.03 33.45 92.36 34.17Q91.70 34.88 90.45 34.88L90.45 34.88Q89.19 34.88 88.54 34.17Q87.90 33.45 87.90 32.45Z M106.02 42.50L106.02 64.53L101.68 64.53L101.68 42.50L97.67 42.50L97.67 39.17L101.68 39.17L101.68 36.50Q101.68 33.76 102.68 31.87Q103.67 29.98 105.55 29.01Q107.42 28.04 110 28.04L110 28.04Q110.75 28.04 111.51 28.13Q112.27 28.23 113 28.41L113 28.41L112.77 31.95Q112.27 31.84 111.65 31.79Q111.03 31.74 110.42 31.74L110.42 31.74Q109.04 31.74 108.04 32.29Q107.05 32.84 106.53 33.90Q106.02 34.95 106.02 36.50L106.02 36.50L106.02 39.17L111.41 39.17L111.41 42.50L106.02 42.50Z M122.12 39.17L126.85 39.17L126.85 42.50L122.12 42.50L122.12 58.25Q122.12 59.54 122.52 60.20Q122.91 60.85 123.55 61.06Q124.18 61.27 124.91 61.27L124.91 61.27Q125.45 61.27 126.04 61.17Q126.64 61.06 126.95 60.99L126.95 60.99L126.97 64.53Q126.45 64.70 125.62 64.85Q124.79 65 123.62 65L123.62 65Q122.02 65 120.69 64.37Q119.35 63.73 118.57 62.25Q117.78 60.76 117.78 58.23L117.78 58.23L117.78 42.50L113.14 42.50L113.14 39.17L117.78 39.17L117.78 33.01L122.12 33.01L122.12 39.17Z M152.12 53.49L152.12 30.41L156.62 30.41L156.62 53.49Q156.62 57.34 154.91 59.89Q153.20 62.45 150.37 63.72Q147.55 65 144.24 65L144.24 65Q140.77 65 137.97 63.72Q135.17 62.45 133.54 59.89Q131.91 57.34 131.91 53.49L131.91 53.49L131.91 30.41L136.39 30.41L136.39 53.49Q136.39 56.16 137.38 57.90Q138.36 59.63 140.13 60.48Q141.90 61.32 144.24 61.32L144.24 61.32Q146.61 61.32 148.38 60.48Q150.15 59.63 151.13 57.90Q152.12 56.16 152.12 53.49L152.12 53.49Z M164.05 30.41L168.57 30.41L168.57 64.53L164.05 64.53L164.05 30.41Z" fill="#9929bd"/>
</svg>