<svg xmlns="http://www.w3.org/2000/svg" width="249" height="97" viewBox="0 0 249 97">
  <path d="M42.15 55.91L42.15 55.91Q42.15 54.71 41.79 53.79Q41.42 52.86 40.52 52.11Q39.62 51.36 38.04 50.68Q36.45 50 34.04 49.30L34.04 49.30Q31.51 48.55 29.47 47.62Q27.43 46.70 25.98 45.50Q24.52 44.30 23.75 42.76Q22.98 41.21 22.98 39.22L22.98 39.22Q22.98 37.23 23.80 35.54Q24.62 33.85 26.15 32.60Q27.69 31.34 29.82 30.64Q31.95 29.94 34.58 29.94L34.58 29.94Q38.42 29.94 41.11 31.40Q43.79 32.87 45.20 35.22Q46.60 37.58 46.60 40.25L46.60 40.25L42.10 40.25Q42.10 38.33 41.28 36.84Q40.46 35.35 38.80 34.50Q37.13 33.64 34.58 33.64L34.58 33.64Q32.16 33.64 30.59 34.37Q29.02 35.09 28.26 36.34Q27.50 37.58 27.50 39.17L27.50 39.17Q27.50 40.25 27.96 41.13Q28.41 42.01 29.39 42.76Q30.36 43.51 31.87 44.14Q33.38 44.77 35.49 45.36L35.49 45.36Q38.40 46.18 40.51 47.19Q42.62 48.20 43.99 49.45Q45.36 50.70 46.03 52.29Q46.70 53.87 46.70 55.86L46.70 55.86Q46.70 57.95 45.85 59.63Q45.01 61.32 43.44 62.52Q41.87 63.71 39.68 64.36Q37.48 65 34.79 65L34.79 65Q32.42 65 30.14 64.34Q27.85 63.69 25.99 62.38Q24.13 61.06 23.01 59.13Q21.90 57.20 21.90 54.64L21.90 54.64L26.40 54.64Q26.40 56.40 27.08 57.65Q27.76 58.91 28.94 59.73Q30.13 60.55 31.64 60.93Q33.15 61.32 34.79 61.32L34.79 61.32Q37.16 61.32 38.80 60.66Q40.44 60.01 41.29 58.79Q42.15 57.57 42.15 55.91Z M49.51 39.17L53.84 39.17L58.84 58.11L64.74 39.17L68.23 39.17L74.23 58.51L79.13 39.17L83.45 39.17L76.09 64.53L72.57 64.53L66.41 45.34L60.41 64.53L56.87 64.53L49.51 39.17Z M88.23 39.17L92.59 39.17L92.59 64.53L88.23 64.53L88.23 39.17ZM87.90 32.45L87.90 32.45Q87.90 31.39 88.54 30.66Q89.19 29.94 90.45 29.94L90.45 29.94Q91.70 29.94 92.36 30.66Q93.03 31.39 93.03 32.45L93.03 32.45Q93.03 33.45 92.36 34.17Q91.70 34.88 90.45 34.88L90.45 34.88Q89.19 34.88 88.54 34.17Q87.90 33.45 87.90 32.45Z M106.02 42.50L106.02 64.53L101.68 64.53L101.68 42.50L97.67 42.50L97.67 39.17L101.68 39.17L101.68 36.50Q101.68 33.76 102.68 31.87Q103.67 29.98 105.55 29.01Q107.42 28.04 110 28.04L110 28.04Q110.75 28.04 111.51 28.13Q112.27 28.23 113 28.41L113 28.41L112.77 31.95Q112.27 31.84 111.65 31.79Q111.03 31.74 110.42 31.74L110.42 31.74Q109.04 31.74 108.04 32.29Q107.05 32.84 106.53 33.90Q106.02 34.95 106.02 36.50L106.02 36.50L106.02 39.17L111.41 39.17L111.41 42.50L106.02 42.50Z M122.12 39.17L126.85 39.17L126.85 42.50L122.12 42.50L122.12 58.25Q122.12 59.54 122.52 60.20Q122.91 60.85 123.55 61.06Q124.18 61.27 124.91 61.27L124.91 61.27Q125.45 61.27 126.04 61.17Q126.64 61.06 126.95 60.99L126.95 60.99L126.97 64.53Q126.45 64.70 125.62 64.85Q124.79 65 123.62 65L123.62 65Q122.02 65 120.69 64.37Q119.35 63.73 118.57 62.25Q117.78 60.76 117.78 58.23L117.78 58.23L117.78 42.50L113.14 42.50L113.14 39.17L117.78 39.17L117.78 33.01L122.12 33.01L122.12 39.17Z M141.83 64.53L141.83 64.53L132.59 64.53L132.59 30.41L142.25 30.41Q145.60 30.41 148.37 31.52Q151.13 32.63 153.14 34.73Q155.14 36.83 156.22 39.79Q157.30 42.76 157.30 46.46L157.30 46.46L157.30 48.50Q157.30 52.20 156.22 55.17Q155.14 58.13 153.11 60.22Q151.09 62.30 148.24 63.42Q145.39 64.53 141.83 64.53ZM137.12 34.11L137.12 60.85L141.83 60.85Q145.48 60.85 147.92 59.32Q150.36 57.78 151.59 55.00Q152.82 52.23 152.82 48.50L152.82 48.50L152.82 46.41Q152.82 43.48 152.12 41.20Q151.41 38.91 150.05 37.33Q148.70 35.75 146.74 34.93Q144.78 34.11 142.25 34.11L142.25 34.11L137.12 34.11Z M178.48 61.86L178.48 61.86Q178.18 62.16 177.85 62.47L177.85 62.47Q176.63 63.57 174.98 64.29Q173.33 65 171.27 65L171.27 65Q168.69 65 166.75 63.99Q164.82 62.98 163.75 61.29Q162.69 59.59 162.69 57.48L162.69 57.48Q162.69 55.44 163.48 53.88Q164.28 52.32 165.78 51.28Q167.28 50.23 169.39 49.70Q171.50 49.16 174.10 49.16L174.10 49.16L178.39 49.16L178.39 47.14Q178.39 45.64 177.79 44.53Q177.20 43.41 176 42.80Q174.80 42.20 173.05 42.20L173.05 42.20Q171.41 42.20 170.18 42.76Q168.95 43.32 168.25 44.23Q167.56 45.15 167.56 46.20L167.56 46.20L163.23 46.20Q163.23 44.84 163.93 43.51Q164.63 42.17 165.96 41.08Q167.28 39.99 169.14 39.35Q171.01 38.70 173.30 38.70L173.30 38.70Q176.07 38.70 178.19 39.64Q180.31 40.58 181.52 42.46Q182.73 44.35 182.73 47.19L182.73 47.19L182.73 59Q182.73 60.27 182.95 61.70Q183.17 63.13 183.62 64.16L183.62 64.16L183.62 64.53L179.09 64.53Q178.77 63.78 178.58 62.52L178.58 62.52Q178.53 62.19 178.48 61.86ZM178.39 57.41L178.39 52.20L174.80 52.20Q172.95 52.20 171.50 52.50Q170.05 52.79 169.06 53.38Q168.08 53.96 167.56 54.84Q167.05 55.72 167.05 56.89L167.05 56.89Q167.05 58.09 167.59 59.07Q168.13 60.05 169.21 60.63Q170.30 61.20 171.90 61.20L171.90 61.20Q173.89 61.20 175.41 60.36Q176.94 59.52 177.85 58.30L177.85 58.30Q178.18 57.85 178.39 57.41L178.39 57.41Z M195.43 39.17L200.16 39.17L200.16 42.50L195.43 42.50L195.43 58.25Q195.43 59.54 195.83 60.20Q196.23 60.85 196.86 61.06Q197.49 61.27 198.22 61.27L198.22 61.27Q198.76 61.27 199.36 61.17Q199.95 61.06 200.26 60.99L200.26 60.99L200.28 64.53Q199.77 64.70 198.93 64.85Q198.10 65 196.93 65L196.93 65Q195.34 65 194 64.37Q192.66 63.73 191.88 62.25Q191.09 60.76 191.09 58.23L191.09 58.23L191.09 42.50L186.45 42.50L186.45 39.17L191.09 39.17L191.09 33.01L195.43 33.01L195.43 39.17Z M220.30 61.86L220.30 61.86Q219.99 62.16 219.66 62.47L219.66 62.47Q218.45 63.57 216.79 64.29Q215.14 65 213.08 65L213.08 65Q210.50 65 208.57 63.99Q206.63 62.98 205.57 61.29Q204.50 59.59 204.50 57.48L204.50 57.48Q204.50 55.44 205.30 53.88Q206.09 52.32 207.59 51.28Q209.09 50.23 211.20 49.70Q213.31 49.16 215.91 49.16L215.91 49.16L220.20 49.16L220.20 47.14Q220.20 45.64 219.61 44.53Q219.01 43.41 217.81 42.80Q216.62 42.20 214.86 42.20L214.86 42.20Q213.22 42.20 211.99 42.76Q210.76 43.32 210.07 44.23Q209.38 45.15 209.38 46.20L209.38 46.20L205.04 46.20Q205.04 44.84 205.74 43.51Q206.45 42.17 207.77 41.08Q209.09 39.99 210.96 39.35Q212.82 38.70 215.12 38.70L215.12 38.70Q217.88 38.70 220.00 39.64Q222.13 40.58 223.33 42.46Q224.54 44.35 224.54 47.19L224.54 47.19L224.54 59Q224.54 60.27 224.76 61.70Q224.98 63.13 225.43 64.16L225.43 64.16L225.43 64.53L220.91 64.53Q220.58 63.78 220.39 62.52L220.39 62.52Q220.34 62.19 220.30 61.86ZM220.20 57.41L220.20 52.20L216.62 52.20Q214.77 52.20 213.31 52.50Q211.86 52.79 210.88 53.38Q209.89 53.96 209.38 54.84Q208.86 55.72 208.86 56.89L208.86 56.89Q208.86 58.09 209.40 59.07Q209.94 60.05 211.03 60.63Q212.12 61.20 213.71 61.20L213.71 61.20Q215.70 61.20 217.23 60.36Q218.75 59.52 219.66 58.30L219.66 58.30Q219.99 57.85 220.20 57.41L220.20 57.41Z" fill="#9929bd"/>
</svg>